<svg xmlns="http://www.w3.org/2000/svg" width="512" height="512" viewBox="0 0 256 256" fill="none">
  <defs>
    <linearGradient id="emerald" x1="32" y1="32" x2="224" y2="224" gradientUnits="userSpaceOnUse">
      <stop stop-color="#0B7A5D"/>
      <stop offset="1" stop-color="#0A5F4A"/>
    </linearGradient>
    <linearGradient id="gold" x1="64" y1="44" x2="208" y2="212" gradientUnits="userSpaceOnUse">
      <stop stop-color="#E5C27A"/>
      <stop offset="1" stop-color="#B8944E"/>
    </linearGradient>
  </defs>
  <circle cx="128" cy="128" r="112" fill="url(#emerald)"/>
  <circle cx="128" cy="128" r="111" stroke="#FFFFFF" stroke-opacity="0.14" stroke-width="2"/>
  <g opacity="0.92">
    <path
      d="M128 48 143.5 89.6 188 68 166.4 112.5 208 128 166.4 143.5 188 188 143.5 166.4 128 208 112.5 166.4 68 188 89.6 143.5 48 128 89.6 112.5 68 68 112.5 89.6 128 48Z"
      fill="url(#gold)"
      fill-opacity="0.95"
    />
    <path
      d="M128 66 140 96.6 170 84 157.4 114 190 128 157.4 142 170 172 140 159.4 128 190 116 159.4 86 172 98.6 142 66 128 98.6 114 86 84 116 96.6 128 66Z"
      fill="#0B7A5D"
      fill-opacity="0.9"
    />
  </g>
  <path
    d="M154.5 92c-9.7-10.9-25.8-14.8-39.7-9.6 15.2 2.1 27 14.9 27 30.7 0 15.6-11.5 28.2-26.4 30.6 13.8 4.4 29.3.3 38.7-10.4-4.5 1.8-9.4 2.8-14.6 2.8-21.1 0-38.2-17.1-38.2-38.2S118.4 89.7 139.5 89.7c5.6 0 10.9 1.1 15 2.3Z"
    fill="#FFFFFF"
    fill-opacity="0.92"
  />
</svg>

