<svg xmlns="http://www.w3.org/2000/svg" width="1600" height="1000" viewBox="0 0 1600 1000" role="img" aria-label="Placeholder foto ustadz">
  <defs>
    <linearGradient id="bg" x1="0" y1="0" x2="1" y2="1">
      <stop offset="0" stop-color="#0a2531" />
      <stop offset="1" stop-color="#071a22" />
    </linearGradient>
    <radialGradient id="glow" cx="28%" cy="18%" r="70%">
      <stop offset="0" stop-color="#a7e2ff" stop-opacity="0.28" />
      <stop offset="1" stop-color="#a7e2ff" stop-opacity="0" />
    </radialGradient>
    <pattern id="pat" width="56" height="56" patternUnits="userSpaceOnUse">
      <path d="M28 0 L56 28 L28 56 L0 28 Z" fill="none" stroke="#ffffff" stroke-opacity="0.07" />
      <path d="M28 14 L42 28 L28 42 L14 28 Z" fill="none" stroke="#ffffff" stroke-opacity="0.06" />
      <circle cx="28" cy="28" r="1.8" fill="#ffffff" opacity="0.08" />
    </pattern>
  </defs>

  <rect width="1600" height="1000" fill="url(#bg)" />
  <rect width="1600" height="1000" fill="url(#pat)" />
  <rect width="1600" height="1000" fill="url(#glow)" />

  <g opacity="0.14">
    <circle cx="1310" cy="170" r="220" fill="#a7e2ff" />
    <circle cx="1450" cy="320" r="140" fill="#a7e2ff" />
  </g>

  <g fill="#f5f3ee">
    <text x="96" y="150" font-family="ui-sans-serif, system-ui, -apple-system, Segoe UI, Roboto" font-size="36" opacity="0.75">✦  DQS Cemani</text>
    <text x="96" y="235" font-family="ui-sans-serif, system-ui, -apple-system, Segoe UI, Roboto" font-size="72" font-weight="700">Foto Ustadz</text>
    <text x="96" y="295" font-family="ui-sans-serif, system-ui, -apple-system, Segoe UI, Roboto" font-size="30" opacity="0.8">Placeholder — ganti dengan foto resmi saat siap dipublikasikan</text>
  </g>

  <g opacity="0.16" fill="#f5f3ee">
    <path d="M240 860 C380 700, 560 640, 740 670 C910 698, 1060 690, 1210 625 C1350 570, 1470 545, 1560 580 L1560 1000 L240 1000 Z" />
  </g>
</svg>

